# 3ds Max Wavefront OBJ Exporter v0.97b - (c)2007 guruware
# File Created: 18.11.2017 02:44:01

mtllib Flower.mtl

#
# object FireFlower
#

v  0.0608 0.2500 0.0451
v  0.0351 0.2667 0.0342
v  0.0000 0.2318 0.0703
v  0.0702 0.2272 0.0600
v  0.0608 0.2044 0.0749
v  0.0351 0.1877 0.0859
v  0.0000 0.1815 0.0899
v  -0.0351 0.1877 0.0859
v  -0.0608 0.2044 0.0749
v  -0.0702 0.2272 0.0600
v  -0.0608 0.2500 0.0451
v  -0.0351 0.2667 0.0342
v  0.0000 0.2729 0.0302
v  0.0906 0.1731 0.1002
v  0.0000 0.2233 0.0510
v  0.0490 0.1543 0.1118
v  0.0588 0.1220 0.0975
v  0.1087 0.1446 0.0836
v  0.1008 0.1332 0.0508
v  0.0546 0.1122 0.0636
v  0.0000 0.1407 0.0350
v  0.0555 0.1565 0.0257
v  0.1318 0.1646 0.0315
v  0.0784 0.1944 0.0032
v  0.1426 0.2016 0.0088
v  0.1420 0.1784 0.0628
v  0.1537 0.2183 0.0384
v  0.1318 0.2386 -0.0139
v  0.1420 0.2582 0.0139
v  0.1183 0.2678 0.0421
v  0.1281 0.2346 0.0625
v  0.1183 0.2013 0.0829
v  0.0000 0.1477 0.1158
v  0.0000 0.1140 0.1023
v  0.0000 0.1049 0.0681
v  -0.0546 0.1122 0.0636
v  -0.0588 0.1220 0.0975
v  -0.0490 0.1543 0.1118
v  0.0906 0.2960 0.0248
v  0.1087 0.2920 -0.0069
v  0.1008 0.2700 -0.0332
v  0.0555 0.2324 -0.0193
v  0.0490 0.3148 0.0133
v  0.0588 0.3146 -0.0207
v  0.0546 0.2909 -0.0460
v  0.0000 0.2481 -0.0286
v  0.0000 0.2983 -0.0506
v  0.0000 0.3225 -0.0256
v  0.0000 0.3214 0.0092
v  -0.0588 0.3146 -0.0207
v  -0.0546 0.2909 -0.0460
v  -0.0555 0.2324 -0.0193
v  -0.1008 0.2700 -0.0332
v  -0.1087 0.2920 -0.0069
v  -0.0490 0.3148 0.0133
v  -0.0906 0.2960 0.0248
v  0.0183 0.0480 -0.0589
v  0.0000 0.0251 -0.0471
v  0.0248 0.0518 -0.0329
v  0.0378 0.0690 -0.0684
v  0.0461 0.0746 -0.0422
v  0.0311 0.0336 -0.0119
v  0.0235 0.0244 -0.0138
v  -0.0183 0.0480 -0.0589
v  -0.0248 0.0518 -0.0329
v  -0.0378 0.0690 -0.0684
v  -0.0461 0.0746 -0.0422
v  -0.0311 0.0336 -0.0119
v  -0.0235 0.0244 -0.0138
v  0.0000 0.0016 -0.0224
v  -0.0297 0.0152 -0.0221
v  -0.0791 0.0377 -0.0281
v  -0.0754 0.0757 -0.0660
v  -0.1197 0.0509 -0.0353
v  -0.1112 0.0763 -0.0618
v  -0.0709 0.0880 -0.0726
v  -0.1124 0.0900 -0.0698
v  -0.1408 0.0794 -0.0608
v  -0.1407 0.0712 -0.0553
v  -0.1461 0.0564 -0.0423
v  -0.1722 0.0584 -0.0528
v  0.0297 0.0152 -0.0221
v  0.0791 0.0377 -0.0281
v  0.0754 0.0758 -0.0648
v  0.0709 0.0880 -0.0726
v  0.1112 0.0763 -0.0618
v  0.1197 0.0509 -0.0353
v  0.1411 0.0712 -0.0557
v  0.1463 0.0563 -0.0426
v  0.1726 0.0585 -0.0524
v  0.1414 0.0794 -0.0613
v  0.1124 0.0900 -0.0698
v  0.0355 0.0144 0.0299
v  0.0000 0.0003 0.0042
v  -0.0355 0.0151 0.0298
v  -0.0633 0.0253 0.0424
v  -0.0984 0.0392 0.0446
v  -0.1365 0.0527 0.0198
v  -0.1574 0.0567 -0.0132
v  0.0352 0.0266 0.0169
v  0.0633 0.0253 0.0424
v  0.0617 0.0398 0.0200
v  0.0984 0.0392 0.0446
v  0.0932 0.0542 0.0203
v  0.0560 0.0513 -0.0137
v  0.0748 0.0894 -0.0498
v  0.0846 0.0651 -0.0200
v  0.1202 0.0740 -0.0302
v  0.1299 0.0629 -0.0013
v  0.1365 0.0527 0.0198
v  0.1533 0.0636 -0.0217
v  0.1468 0.0700 -0.0403
v  0.1568 0.0567 -0.0132
v  0.1094 0.0906 -0.0546
v  0.1403 0.0796 -0.0560
v  0.0000 0.1132 -0.0157
v  0.0000 0.0852 -0.0162
v  0.0254 0.1160 -0.0378
v  0.0254 0.1481 -0.0321
v  0.0000 0.1415 -0.0086
v  0.0264 0.1788 -0.0030
v  0.0000 0.1659 0.0151
v  -0.0264 0.1788 -0.0030
v  -0.0254 0.1481 -0.0321
v  -0.0245 0.1931 -0.0201
v  0.0000 0.1624 -0.0548
v  0.0000 0.2079 -0.0247
v  0.0245 0.1931 -0.0201
v  0.0000 0.1194 -0.0656
v  0.0000 0.0808 -0.0652
v  -0.0254 0.1160 -0.0378
v  -0.0250 0.0827 -0.0361
v  0.0250 0.0827 -0.0361
v  0.0149 0.0162 -0.0054
v  -0.0149 0.0162 -0.0054
v  0.0000 0.1725 -0.0249
v  -0.0555 0.1565 0.0257
v  -0.0784 0.1944 0.0032
v  -0.1008 0.1332 0.0508
v  -0.1318 0.1646 0.0315
v  -0.1426 0.2016 0.0088
v  -0.1420 0.1784 0.0628
v  -0.1537 0.2183 0.0384
v  -0.1318 0.2386 -0.0139
v  -0.1420 0.2582 0.0139
v  -0.1183 0.2678 0.0421
v  -0.1281 0.2346 0.0625
v  -0.1183 0.2013 0.0829
v  -0.0906 0.1731 0.1002
v  -0.1087 0.1446 0.0836
v  -0.0352 0.0266 0.0169
v  -0.0617 0.0398 0.0200
v  -0.0932 0.0542 0.0203
v  -0.0560 0.0513 -0.0137
v  -0.0748 0.0894 -0.0498
v  -0.0846 0.0651 -0.0200
v  -0.1202 0.0740 -0.0302
v  -0.1299 0.0629 -0.0013
v  -0.1536 0.0636 -0.0216
v  -0.1468 0.0700 -0.0400
v  -0.1094 0.0906 -0.0546
v  -0.1399 0.0796 -0.0556
# 162 vertices

vn 0.1370 0.6170 0.7749
vn 0.0812 0.6763 0.7321
vn 0.0000 0.5412 0.8409
vn 0.1572 0.5405 0.8265
vn 0.1415 0.4596 0.8768
vn 0.0863 0.3903 0.9166
vn 0.0000 0.3616 0.9323
vn -0.0863 0.3903 0.9166
vn -0.1415 0.4596 0.8768
vn -0.1572 0.5405 0.8265
vn -0.1370 0.6170 0.7749
vn -0.0812 0.6763 0.7321
vn 0.0000 0.6993 0.7148
vn 0.2547 0.1947 0.9472
vn 0.0000 0.5276 0.8495
vn 0.1273 0.1347 0.9827
vn 0.3174 -0.7064 0.6327
vn 0.6253 -0.5556 0.5480
vn 0.4332 -0.8359 -0.3371
vn 0.2202 -0.9376 -0.2692
vn 0.0000 -0.7652 -0.6438
vn 0.1810 -0.6764 -0.7139
vn 0.6079 -0.6456 -0.4623
vn 0.2234 -0.5014 -0.8359
vn 0.6832 -0.3785 -0.6245
vn 0.8779 -0.2811 0.3877
vn 0.9822 0.0943 0.1625
vn 0.6100 -0.1063 -0.7853
vn 0.8807 0.4689 -0.0675
vn 0.3747 0.6469 0.6642
vn 0.4157 0.4779 0.7738
vn 0.3651 0.3109 0.8775
vn 0.0000 0.1170 0.9931
vn 0.0000 -0.7529 0.6581
vn 0.0000 -0.9700 -0.2430
vn -0.2202 -0.9376 -0.2692
vn -0.3174 -0.7064 0.6327
vn -0.1273 0.1347 0.9827
vn 0.2669 0.7676 0.5827
vn 0.6286 0.7399 -0.2397
vn 0.4347 0.0902 -0.8960
vn 0.1568 -0.3418 -0.9266
vn 0.1352 0.8319 0.5383
vn 0.3193 0.8858 -0.3368
vn 0.2197 0.1976 -0.9554
vn 0.0000 -0.2679 -0.9634
vn 0.0000 0.2315 -0.9728
vn 0.0000 0.9301 -0.3673
vn 0.0000 0.8513 0.5247
vn -0.3193 0.8858 -0.3368
vn -0.2197 0.1976 -0.9554
vn -0.1568 -0.3418 -0.9266
vn -0.4347 0.0902 -0.8960
vn -0.6286 0.7399 -0.2397
vn -0.1352 0.8319 0.5383
vn -0.2669 0.7676 0.5827
vn -0.5443 0.0506 -0.8374
vn 0.0000 -0.4930 -0.8700
vn -0.6469 0.6335 0.4245
vn -0.4979 0.2098 -0.8415
vn -0.4779 0.8039 0.3541
vn -0.5962 0.6714 0.4401
vn -0.2804 0.7738 0.5679
vn 0.5443 0.0506 -0.8374
vn 0.6469 0.6335 0.4245
vn 0.5072 0.2070 -0.8366
vn 0.4779 0.8039 0.3541
vn 0.5962 0.6714 0.4401
vn 0.2804 0.7738 0.5679
vn -0.0019 -0.9247 -0.3806
vn -0.3691 -0.8426 -0.3922
vn -0.2735 -0.8656 -0.4194
vn -0.1288 -0.5659 -0.8144
vn -0.1626 -0.9000 -0.4044
vn -0.0792 -0.6064 -0.7912
vn 0.1774 0.5436 -0.8204
vn -0.2323 0.5182 -0.8231
vn -0.4741 0.4087 -0.7799
vn 0.0680 -0.6289 -0.7745
vn 0.0058 -0.9174 -0.3979
vn -0.8628 -0.2076 -0.4610
vn 0.3701 -0.8403 -0.3960
vn 0.2728 -0.8647 -0.4217
vn 0.1248 -0.5924 -0.7960
vn -0.1795 0.5200 -0.8351
vn 0.0685 -0.6066 -0.7921
vn 0.1571 -0.9014 -0.4034
vn -0.0637 -0.6288 -0.7749
vn 0.0003 -0.9139 -0.4059
vn 0.8749 -0.2050 -0.4388
vn 0.4713 0.4105 -0.7806
vn 0.2260 0.5204 -0.8235
vn -0.2768 -0.4918 0.8255
vn -0.0128 -0.7440 0.6680
vn 0.2981 -0.4719 0.8297
vn 0.0453 -0.3307 0.9426
vn -0.2682 -0.1870 0.9450
vn -0.6985 -0.0691 0.7123
vn -0.8556 -0.2794 0.4357
vn -0.5471 0.7226 0.4225
vn -0.0413 -0.3280 0.9438
vn -0.4142 0.7998 0.4345
vn 0.2682 -0.1870 0.9450
vn -0.1885 0.8752 0.4455
vn -0.3882 0.7670 0.5110
vn -0.1893 0.9330 0.3062
vn -0.1852 0.8527 0.4885
vn 0.1206 0.9000 0.4188
vn 0.1342 0.9236 0.3591
vn 0.6965 -0.0684 0.7143
vn 0.4511 0.8454 0.2860
vn 0.3833 0.8819 0.2743
vn 0.8614 -0.2718 0.4291
vn 0.1353 0.9618 0.2382
vn 0.4116 0.8888 0.2017
vn 0.0000 -0.1145 0.9934
vn 0.0000 0.1626 0.9867
vn 0.9999 0.0023 0.0104
vn 0.9911 -0.0854 -0.1019
vn 0.0000 -0.5171 0.8559
vn 0.9138 -0.2929 0.2812
vn 0.0000 -0.6952 0.7188
vn -0.9138 -0.2929 0.2812
vn -0.9911 -0.0854 -0.1019
vn -0.7759 0.2984 -0.5558
vn 0.0000 0.3150 -0.9491
vn 0.0000 0.5519 -0.8339
vn 0.7759 0.2984 -0.5558
vn 0.0000 0.1177 -0.9930
vn 0.0000 -0.1663 -0.9861
vn -0.9999 0.0023 0.0104
vn -0.9995 -0.0107 0.0304
vn 0.9995 -0.0107 0.0304
vn -0.2625 0.7180 0.6446
vn 0.2625 0.7180 0.6446
vn 0.0000 -0.5386 -0.8426
vn -0.1810 -0.6764 -0.7139
vn -0.2234 -0.5014 -0.8359
vn -0.4332 -0.8359 -0.3371
vn -0.6079 -0.6456 -0.4623
vn -0.6832 -0.3785 -0.6245
vn -0.8779 -0.2811 0.3877
vn -0.9822 0.0943 0.1625
vn -0.6100 -0.1063 -0.7853
vn -0.8807 0.4689 -0.0675
vn -0.3747 0.6469 0.6642
vn -0.4157 0.4779 0.7738
vn -0.3651 0.3109 0.8775
vn -0.2547 0.1947 0.9472
vn -0.6253 -0.5556 0.5480
vn 0.5454 0.7275 0.4162
vn 0.4142 0.7998 0.4345
vn 0.1885 0.8752 0.4455
vn 0.3882 0.7670 0.5110
vn 0.1893 0.9330 0.3062
vn 0.1852 0.8527 0.4885
vn -0.1185 0.8998 0.4198
vn -0.1319 0.9237 0.3597
vn -0.4517 0.8470 0.2801
vn -0.3863 0.8826 0.2678
vn -0.1352 0.9619 0.2376
vn -0.4151 0.8883 0.1966
# 162 vertex normals

vt 0.3803 0.8054 0.0000
vt 0.2389 0.9261 0.0000
vt 0.0457 0.6390 0.0000
vt 0.4321 0.6407 0.0000
vt 0.3803 0.4759 0.0000
vt 0.2389 0.3553 0.0000
vt 0.0457 0.3111 0.0000
vt 0.0457 0.9702 0.0000
vt 0.8590 0.6949 0.0000
vt 0.1987 0.8388 0.0000
vt 0.8590 0.9822 0.0000
vt 0.9800 0.9822 0.0000
vt 0.9800 0.6949 0.0000
vt 0.5180 0.9822 0.0000
vt 0.5180 0.6949 0.0000
vt 0.7273 0.1484 0.0000
vt 0.5803 0.0983 0.0000
vt 0.6132 0.1484 0.0000
vt 0.8294 0.2910 0.0000
vt 0.6734 0.2906 0.0000
vt 0.5128 0.1492 0.0000
vt 0.5128 0.1093 0.0000
vt 0.6080 0.0503 0.0000
vt 0.5699 0.1492 0.0000
vt 0.5699 0.3513 0.0000
vt 0.7480 0.4226 0.0000
vt 0.5699 0.5535 0.0000
vt 0.6666 0.5542 0.0000
vt 0.8313 0.4320 0.0000
vt 0.7400 0.5545 0.0000
vt 0.6264 0.6047 0.0000
vt 0.5897 0.6046 0.0000
vt 0.5414 0.6042 0.0000
vt 0.5128 0.6549 0.0000
vt 0.7337 0.4329 0.0000
vt 0.5128 0.2905 0.0000
vt 0.5128 0.4319 0.0000
vt 0.5128 0.5534 0.0000
vt 0.5128 0.6042 0.0000
vt 0.5781 0.2801 0.0000
vt 0.6902 0.2800 0.0000
vt 0.5797 0.2802 0.0000
vt 0.5813 0.2803 0.0000
vt 0.8024 0.2799 0.0000
vt 0.5465 0.1038 0.0000
vt 0.4711 0.0195 0.0000
vt -0.1742 0.1191 0.0000
vt 0.4270 0.1199 0.0000
vt 0.4268 0.1198 0.0000
vt 0.3987 0.2204 0.0000
vt 0.3988 0.2205 0.0000
# 51 texture coords

g FireFlower
usemtl default
s 1
f 1/1/1 2/2/2 3/3/3 
f 4/4/4 1/1/1 3/3/3 
f 5/5/5 4/4/4 3/3/3 
f 6/6/6 5/5/5 3/3/3 
f 7/7/7 6/6/6 3/3/3 
f 7/7/7 3/3/3 8/6/8 
f 8/6/8 3/3/3 9/5/9 
f 9/5/9 3/3/3 10/4/10 
f 10/4/10 3/3/3 11/1/11 
f 11/1/11 3/3/3 12/2/12 
f 12/2/12 3/3/3 13/8/13 
f 2/2/2 13/8/13 3/3/3 
f 14/9/14 15/10/15 16/11/16 
f 14/9/14 16/11/16 17/12/17 
f 18/13/18 14/9/14 17/12/17 
f 18/13/18 17/12/17 19/9/19 
f 17/12/17 20/11/20 19/9/19 
f 20/11/20 21/14/21 22/15/22 
f 19/11/19 20/11/20 22/15/22 
f 23/11/23 19/11/19 22/15/22 
f 23/11/23 22/15/22 24/15/24 
f 23/11/23 24/15/24 25/9/25 
f 26/12/26 23/11/23 25/9/25 
f 27/13/27 26/12/26 25/9/25 
f 27/13/27 25/9/25 28/11/28 
f 29/12/29 27/13/27 28/11/28 
f 29/12/29 30/11/30 27/13/27 
f 30/11/30 31/9/31 27/13/27 
f 30/11/30 15/10/15 31/9/31 
f 31/9/31 15/10/15 32/11/32 
f 27/13/27 31/9/31 32/11/32 
f 27/13/27 32/11/32 26/12/26 
f 32/9/32 15/10/15 14/11/14 
f 32/9/32 14/11/14 18/12/18 
f 26/13/26 32/9/32 18/12/18 
f 26/13/26 18/12/18 23/9/23 
f 18/12/18 19/11/19 23/9/23 
f 16/9/16 15/10/15 33/11/33 
f 16/9/16 33/11/33 34/12/34 
f 17/13/17 16/9/16 34/12/34 
f 17/13/17 34/12/34 20/9/20 
f 34/12/34 35/11/35 20/9/20 
f 36/9/36 35/11/35 34/12/34 
f 37/13/37 36/9/36 34/12/34 
f 37/13/37 34/12/34 38/9/38 
f 34/12/34 33/11/33 38/9/38 
f 38/9/38 33/11/33 15/10/15 
f 39/11/39 15/10/15 30/9/30 
f 39/11/39 30/9/30 29/13/29 
f 40/12/40 39/11/39 29/13/29 
f 40/12/40 29/13/29 41/11/41 
f 29/13/29 28/9/28 41/11/41 
f 42/14/42 41/11/41 28/9/28 
f 24/15/24 42/14/42 28/9/28 
f 24/15/24 28/9/28 25/9/25 
f 43/11/43 15/10/15 39/9/39 
f 43/11/43 39/9/39 40/13/40 
f 44/12/44 43/11/43 40/13/40 
f 44/12/44 40/13/40 45/11/45 
f 40/13/40 41/9/41 45/11/45 
f 45/9/45 41/9/41 42/15/42 
f 45/9/45 42/15/42 46/14/46 
f 45/9/45 46/14/46 47/11/47 
f 44/13/44 45/9/45 47/11/47 
f 48/12/48 44/13/44 47/11/47 
f 48/12/48 49/11/49 44/13/44 
f 48/12/48 50/13/50 49/11/49 
f 48/12/48 47/11/47 50/13/50 
f 47/11/47 51/9/51 50/13/50 
f 51/9/51 47/11/47 46/14/46 
f 51/9/51 46/14/46 52/15/52 
f 51/9/51 52/15/52 53/9/53 
f 51/11/51 53/9/53 54/13/54 
f 50/12/50 51/11/51 54/13/54 
f 50/12/50 54/13/54 55/11/55 
f 54/13/54 56/9/56 55/11/55 
f 55/11/55 56/9/56 15/10/15 
f 49/11/49 15/10/15 43/9/43 
f 49/11/49 43/9/43 44/13/44 
f 49/11/49 55/9/55 15/10/15 
f 50/13/50 55/9/55 49/11/49 
f 57/16/57 58/17/58 59/18/59 
f 60/19/60 57/16/57 59/18/59 
f 59/18/59 61/20/61 60/19/60 
f 62/21/62 61/20/61 59/18/59 
f 59/18/59 63/22/63 62/21/62 
f 59/18/59 58/17/58 63/22/63 
f 64/16/64 65/18/65 58/17/58 
f 66/19/66 65/18/65 64/16/64 
f 65/18/65 66/19/66 67/20/67 
f 68/21/68 65/18/65 67/20/67 
f 69/22/69 65/18/65 68/21/68 
f 69/22/69 58/17/58 65/18/65 
f 58/17/58 57/16/57 70/23/70 
f 64/16/64 58/17/58 70/23/70 
f 71/24/71 64/16/64 70/23/70 
f 71/24/71 66/19/66 64/16/64 
f 72/25/72 66/19/66 71/24/71 
f 72/25/72 73/26/73 66/19/66 
f 73/26/73 72/25/72 74/27/74 
f 75/28/75 73/26/73 74/27/74 
f 73/26/73 75/28/75 76/29/76 
f 66/19/66 73/26/73 76/29/76 
f 75/28/75 77/30/77 76/29/76 
f 77/30/77 75/28/75 78/31/78 
f 75/28/75 79/32/79 78/31/78 
f 79/32/79 75/28/75 74/27/74 
f 80/33/80 79/32/79 74/27/74 
f 81/34/81 79/32/79 80/33/80 
f 78/31/78 79/32/79 81/34/81 
f 57/16/57 82/24/82 70/23/70 
f 57/16/57 60/19/60 82/24/82 
f 82/24/82 60/19/60 83/25/83 
f 60/19/60 84/26/84 83/25/83 
f 60/19/60 85/29/85 84/26/84 
f 84/26/84 85/29/85 86/28/86 
f 84/26/84 86/28/86 83/25/83 
f 86/28/86 87/27/87 83/25/83 
f 87/27/87 86/28/86 88/32/88 
f 89/33/89 87/27/87 88/32/88 
f 90/34/90 89/33/89 88/32/88 
f 88/32/88 91/31/91 90/34/90 
f 91/31/91 88/32/88 86/28/86 
f 92/30/92 91/31/91 86/28/86 
f 85/29/85 92/30/92 86/28/86 
f 70/23/70 82/24/82 93/16/93 
f 93/16/93 94/17/94 70/23/70 
f 95/16/95 70/23/70 94/17/94 
f 70/23/70 95/16/95 71/24/71 
f 71/24/71 95/16/95 96/19/96 
f 71/24/71 96/19/96 72/25/72 
f 96/19/96 97/29/97 72/25/72 
f 97/29/97 98/30/98 72/25/72 
f 98/30/98 74/27/74 72/25/72 
f 80/33/80 74/27/74 98/30/98 
f 99/31/99 80/33/80 98/30/98 
f 93/16/93 100/18/100 94/17/94 
f 101/19/101 100/18/100 93/16/93 
f 101/19/101 102/20/102 100/18/100 
f 102/20/102 101/19/101 103/29/103 
f 102/20/102 103/29/103 104/35/104 
f 102/20/102 104/35/104 105/36/105 
f 102/20/102 105/36/105 62/21/62 
f 100/18/100 102/20/102 62/21/62 
f 100/18/100 62/21/62 94/17/94 
f 60/19/60 61/20/61 85/29/85 
f 61/20/61 106/35/106 85/29/85 
f 107/37/107 106/35/106 61/20/61 
f 105/36/105 107/37/107 61/20/61 
f 62/21/62 105/36/105 61/20/61 
f 104/35/104 107/37/107 105/36/105 
f 107/37/107 104/35/104 108/38/108 
f 104/35/104 109/28/109 108/38/108 
f 104/35/104 110/30/110 109/28/109 
f 104/35/104 103/29/103 110/30/110 
f 109/28/109 110/30/110 111/32/111 
f 109/28/109 111/32/111 108/38/108 
f 111/32/111 112/39/112 108/38/108 
f 112/39/112 111/32/111 90/34/90 
f 111/32/111 113/31/113 90/34/90 
f 110/30/110 113/31/113 111/32/111 
f 82/24/82 83/25/83 101/19/101 
f 82/24/82 101/19/101 93/16/93 
f 101/19/101 83/25/83 103/29/103 
f 103/29/103 83/25/83 110/30/110 
f 83/25/83 87/27/87 110/30/110 
f 113/31/113 110/30/110 87/27/87 
f 89/33/89 113/31/113 87/27/87 
f 85/29/85 106/35/106 114/28/114 
f 85/29/85 114/28/114 92/30/92 
f 92/30/92 114/28/114 115/32/115 
f 91/31/91 92/30/92 115/32/115 
f 90/34/90 91/31/91 115/32/115 
f 115/32/115 112/39/112 90/34/90 
f 112/39/112 115/32/115 114/28/114 
f 108/38/108 112/39/112 114/28/114 
f 108/38/108 114/28/114 106/35/106 
f 107/37/107 108/38/108 106/35/106 
f 116/40/116 117/41/117 118/40/118 
f 116/40/116 118/40/118 119/42/119 
f 120/42/120 116/40/116 119/42/119 
f 120/42/120 119/42/119 121/43/121 
f 122/43/122 120/42/120 121/43/121 
f 122/43/122 123/43/123 120/42/120 
f 123/43/123 124/42/124 120/42/120 
f 123/43/123 125/43/125 124/42/124 
f 125/43/125 126/42/126 124/42/124 
f 126/42/126 125/43/125 127/43/127 
f 126/42/126 127/43/127 128/43/128 
f 128/43/128 119/42/119 126/42/126 
f 121/43/121 119/42/119 128/43/128 
f 126/42/126 119/42/119 118/40/118 
f 129/40/129 126/42/126 118/40/118 
f 129/40/129 118/40/118 130/41/130 
f 129/40/129 130/41/130 131/40/131 
f 129/40/129 131/40/131 126/42/126 
f 126/42/126 131/40/131 124/42/124 
f 124/42/124 131/40/131 116/40/116 
f 120/42/120 124/42/124 116/40/116 
f 116/40/116 131/40/131 117/41/117 
f 131/40/131 132/41/132 117/41/117 
f 130/41/130 132/41/132 131/40/131 
f 130/41/130 58/44/58 132/41/132 
f 130/41/130 133/41/133 58/44/58 
f 118/40/118 133/41/133 130/41/130 
f 117/41/117 133/41/133 118/40/118 
f 134/44/134 133/41/133 117/41/117 
f 63/44/63 133/41/133 134/44/134 
f 58/44/58 133/41/133 63/44/63 
f 58/44/58 69/44/69 132/41/132 
f 132/41/132 69/44/69 135/44/135 
f 117/41/117 132/41/132 135/44/135 
f 135/44/135 94/44/94 117/41/117 
f 134/44/134 117/41/117 94/44/94 
f 134/45/134 62/21/62 63/22/63 
f 94/17/94 62/21/62 134/45/134 
f 24/46/24 136/47/136 42/48/42 
f 24/46/24 22/49/22 136/47/136 
f 22/49/22 21/50/21 136/47/136 
f 137/49/137 136/47/136 21/50/21 
f 138/46/138 136/47/136 137/49/137 
f 138/46/138 52/48/52 136/47/136 
f 136/47/136 52/48/52 46/51/46 
f 136/47/136 46/51/46 42/48/42 
f 35/11/35 21/14/21 20/9/20 
f 35/11/35 36/9/36 21/14/21 
f 36/11/36 137/15/137 21/14/21 
f 139/11/139 137/15/137 36/11/36 
f 140/11/140 137/15/137 139/11/139 
f 140/11/140 138/15/138 137/15/137 
f 140/11/140 141/9/141 138/15/138 
f 141/9/141 140/11/140 142/12/142 
f 143/13/143 141/9/141 142/12/142 
f 144/11/144 141/9/141 143/13/143 
f 145/12/145 144/11/144 143/13/143 
f 145/12/145 143/13/143 146/11/146 
f 143/13/143 147/9/147 146/11/146 
f 143/13/143 148/11/148 147/9/147 
f 143/13/143 142/12/142 148/11/148 
f 147/9/147 148/11/148 15/10/15 
f 146/11/146 147/9/147 15/10/15 
f 149/9/149 38/11/38 15/10/15 
f 37/12/37 38/11/38 149/9/149 
f 150/13/150 37/12/37 149/9/149 
f 150/13/150 139/9/139 37/12/37 
f 139/9/139 36/11/36 37/12/37 
f 148/9/148 149/11/149 15/10/15 
f 150/12/150 149/11/149 148/9/148 
f 142/13/142 150/12/150 148/9/148 
f 142/13/142 140/9/140 150/12/150 
f 140/9/140 139/11/139 150/12/150 
f 56/11/56 146/9/146 15/10/15 
f 145/13/145 146/9/146 56/11/56 
f 54/12/54 145/13/145 56/11/56 
f 54/12/54 53/11/53 145/13/145 
f 53/11/53 144/9/144 145/13/145 
f 52/14/52 144/9/144 53/11/53 
f 138/15/138 144/9/144 52/14/52 
f 138/15/138 141/9/141 144/9/144 
f 95/16/95 94/17/94 151/18/151 
f 96/19/96 95/16/95 151/18/151 
f 96/19/96 151/18/151 152/20/152 
f 152/20/152 97/29/97 96/19/96 
f 152/20/152 153/35/153 97/29/97 
f 152/20/152 154/36/154 153/35/153 
f 68/21/68 154/36/154 152/20/152 
f 151/18/151 68/21/68 152/20/152 
f 151/18/151 94/17/94 68/21/68 
f 66/19/66 76/29/76 67/20/67 
f 67/20/67 76/29/76 155/35/155 
f 67/20/67 155/35/155 156/37/156 
f 154/36/154 67/20/67 156/37/156 
f 68/21/68 67/20/67 154/36/154 
f 154/36/154 156/37/156 153/35/153 
f 156/37/156 157/38/157 153/35/153 
f 157/38/157 158/28/158 153/35/153 
f 158/28/158 157/38/157 159/32/159 
f 158/28/158 159/32/159 98/30/98 
f 153/35/153 158/28/158 98/30/98 
f 153/35/153 98/30/98 97/29/97 
f 159/32/159 99/31/99 98/30/98 
f 159/32/159 81/34/81 99/31/99 
f 159/32/159 160/39/160 81/34/81 
f 157/38/157 160/39/160 159/32/159 
f 76/29/76 161/28/161 155/35/155 
f 76/29/76 77/30/77 161/28/161 
f 162/32/162 161/28/161 77/30/77 
f 161/28/161 162/32/162 160/39/160 
f 157/38/157 161/28/161 160/39/160 
f 155/35/155 161/28/161 157/38/157 
f 156/37/156 155/35/155 157/38/157 
f 160/39/160 162/32/162 81/34/81 
f 81/34/81 162/32/162 78/31/78 
f 78/31/78 162/32/162 77/30/77 
f 81/34/81 80/33/80 99/31/99 
f 68/21/68 135/45/135 69/22/69 
f 68/21/68 94/17/94 135/45/135 
f 90/34/90 113/31/113 89/33/89 
# 0 polygons - 298 triangles

