# 3ds Max Wavefront OBJ Exporter v0.97b - (c)2007 guruware
# File Created: 18.11.2017 00:21:58

mtllib OjosBowser.mtl

#
# object n4b2
#

v  -0.6729 6.8378 7.1962
v  -1.0240 6.6618 7.0483
v  -0.7420 6.5599 7.1379
v  -1.0223 6.9117 7.0524
v  -0.9689 7.2068 7.0244
v  -1.5411 6.9987 6.6413
v  -1.4860 7.2947 6.6084
v  -1.7515 7.0217 6.2417
v  -1.7014 7.3366 6.2047
v  1.4004 7.0221 6.2418
v  1.1398 6.7681 6.6603
v  1.3429 6.7648 6.2788
v  1.1899 6.9991 6.6413
v  1.1348 7.2950 6.6084
v  0.6177 7.2070 7.0244
v  0.9276 7.6797 6.5138
v  0.5971 7.6057 6.8895
v  0.2880 7.1149 7.1773
v  0.3489 7.3476 7.0910
v  0.3218 6.8379 7.1963
v  0.6712 6.9119 7.0524
v  0.6728 6.6620 7.0483
v  -0.9484 7.6055 6.8895
v  -0.6393 7.1148 7.1773
v  -0.7001 7.3475 7.0910
v  -1.2789 7.6795 6.5138
v  -1.4909 6.7677 6.6602
v  -1.6940 6.7644 6.2788
v  1.3502 7.3369 6.2048
v  1.1504 7.5655 6.2418
v  -1.5017 7.5651 6.2417
v  0.3909 6.5600 7.1379
# 32 vertices

vn -0.3675 0.0292 0.9296
vn -0.4890 -0.0345 0.8716
vn -0.3376 -0.1124 0.9346
vn -0.5017 0.0762 0.8617
vn -0.4708 0.2533 0.8451
vn -0.7758 0.0454 0.6293
vn -0.7030 0.3470 0.6208
vn -0.8784 0.0524 0.4750
vn -0.8161 0.3543 0.4566
vn 0.8784 0.0526 0.4750
vn 0.7487 -0.0970 0.6558
vn 0.8749 -0.1284 0.4669
vn 0.7758 0.0456 0.6294
vn 0.7029 0.3472 0.6208
vn 0.4707 0.2535 0.8451
vn 0.6565 0.4580 0.5993
vn 0.6144 0.2731 0.7402
vn 0.3896 0.1706 0.9051
vn 0.4958 0.1853 0.8485
vn 0.3674 0.0293 0.9296
vn 0.5016 0.0763 0.8617
vn 0.4890 -0.0344 0.8716
vn -0.6145 0.2729 0.7402
vn -0.3896 0.1705 0.9050
vn -0.4958 0.1852 0.8484
vn -0.6567 0.4578 0.5993
vn -0.7487 -0.0972 0.6558
vn -0.8749 -0.1286 0.4669
vn 0.8160 0.3545 0.4566
vn 0.7316 0.5823 0.3545
vn -0.7318 0.5821 0.3545
vn 0.3376 -0.1123 0.9346
# 32 vertex normals

vt 0.0825 0.3398 0.0000
vt 0.2901 0.2189 0.0000
vt 0.1331 0.1695 0.0000
vt 0.2949 0.3696 0.0000
vt 0.2932 0.5493 0.0000
vt 0.6938 0.4000 0.0000
vt 0.6931 0.5803 0.0000
vt 0.9568 0.4049 0.0000
vt 0.9582 0.5963 0.0000
vt 0.6573 0.2630 0.0000
vt 0.9153 0.2871 0.0000
vt 0.6567 0.8203 0.0000
vt 0.3536 0.7897 0.0000
vt 0.0843 0.5076 0.0000
vt 0.1540 0.6449 0.0000
vt 0.8643 0.7420 0.0000
# 16 texture coords

g n4b2
usemtl 02___Default
s 1
f 1/1/1 2/2/2 3/3/3 
f 2/2/2 1/1/1 4/4/4 
f 5/5/5 4/4/4 1/1/1 
f 4/4/4 5/5/5 6/6/6 
f 7/7/7 6/6/6 5/5/5 
f 6/6/6 7/7/7 8/8/8 
f 9/9/9 8/8/8 7/7/7 
f 10/8/10 11/10/11 12/11/12 
f 11/10/11 10/8/10 13/6/13 
f 14/7/14 13/6/13 10/8/10 
f 13/6/13 14/7/14 15/5/15 
f 16/12/16 15/5/15 14/7/14 
f 15/5/15 16/12/16 17/13/17 
f 18/14/18 17/13/17 19/15/19 
f 17/13/17 18/14/18 15/5/15 
f 20/1/20 15/5/15 18/14/18 
f 15/5/15 20/1/20 21/4/21 
f 22/2/22 21/4/21 20/1/20 
f 21/4/21 22/2/22 11/10/11 
f 23/13/23 24/14/24 25/15/25 
f 24/14/24 23/13/23 5/5/5 
f 26/12/26 5/5/5 23/13/23 
f 5/5/5 26/12/26 7/7/7 
f 27/10/27 8/8/8 28/11/28 
f 8/8/8 27/10/27 6/6/6 
f 4/4/4 6/6/6 27/10/27 
f 16/12/16 29/9/29 30/16/30 
f 29/9/29 16/12/16 14/7/14 
f 9/9/9 26/12/26 31/16/31 
f 26/12/26 9/9/9 7/7/7 
f 13/6/13 21/4/21 11/10/11 
f 21/4/21 13/6/13 15/5/15 
f 2/2/2 4/4/4 27/10/27 
f 1/1/1 24/14/24 5/5/5 
f 32/3/32 22/2/22 20/1/20 
f 10/8/10 29/9/29 14/7/14 
# 0 polygons - 36 triangles

