# 3ds Max Wavefront OBJ Exporter v0.97b - (c)2007 guruware
# File Created: 18.11.2017 02:17:53

mtllib coin.mtl

#
# object default
#

v  0.2295 0.2530 0.0471
v  0.0000 0.2530 0.0471
v  0.2183 0.1821 0.0471
v  0.2183 0.3239 0.0471
v  0.1857 0.1181 0.0471
v  0.1857 0.3879 0.0471
v  0.1349 0.0673 0.0471
v  0.1349 0.4387 0.0471
v  0.0709 0.0347 0.0471
v  0.0709 0.4713 0.0471
v  0.0000 0.0235 0.0471
v  0.0000 0.4825 0.0471
v  -0.0709 0.0347 0.0471
v  -0.0709 0.4713 0.0471
v  -0.1349 0.0673 0.0471
v  -0.1349 0.4387 0.0471
v  -0.1857 0.1181 0.0471
v  -0.1857 0.3879 0.0471
v  -0.2183 0.3239 0.0471
v  -0.2295 0.2530 0.0471
v  -0.2183 0.1821 0.0471
v  0.2295 0.2530 -0.0471
v  0.2183 0.1821 -0.0471
v  0.0000 0.2530 -0.0471
v  0.2183 0.3239 -0.0471
v  0.1857 0.1181 -0.0471
v  0.1857 0.3879 -0.0471
v  0.1349 0.0673 -0.0471
v  0.1349 0.4387 -0.0471
v  0.0709 0.0347 -0.0471
v  0.0709 0.4713 -0.0471
v  0.0000 0.0235 -0.0471
v  0.0000 0.4825 -0.0471
v  -0.0709 0.0347 -0.0471
v  -0.0709 0.4713 -0.0471
v  -0.1349 0.0673 -0.0471
v  -0.1349 0.4387 -0.0471
v  -0.1857 0.1181 -0.0471
v  -0.1857 0.3879 -0.0471
v  -0.2183 0.1821 -0.0471
v  -0.2183 0.3239 -0.0471
v  -0.2295 0.2530 -0.0471
v  0.1914 0.1139 0.0400
v  0.2250 0.1799 0.0400
v  0.1391 0.0616 0.0400
v  0.1914 0.1139 -0.0400
v  0.2250 0.1799 -0.0400
v  0.2366 0.2530 -0.0400
v  0.2366 0.2530 0.0400
v  0.0731 0.0280 0.0400
v  0.1391 0.0616 -0.0400
v  0.2250 0.3261 -0.0400
v  0.2250 0.3261 0.0400
v  0.0000 0.0164 0.0400
v  0.0731 0.0280 -0.0400
v  0.1914 0.3921 -0.0400
v  0.1914 0.3921 0.0400
v  0.0000 0.0164 -0.0400
v  0.1391 0.4444 -0.0400
v  0.1391 0.4444 0.0400
v  0.0731 0.4780 -0.0400
v  0.0731 0.4780 0.0400
v  0.0000 0.4896 -0.0400
v  0.0000 0.4896 0.0400
v  -0.0731 0.0280 0.0400
v  -0.1391 0.0616 0.0400
v  -0.0731 0.0280 -0.0400
v  -0.1914 0.1139 0.0400
v  -0.1391 0.0616 -0.0400
v  -0.2250 0.1799 0.0400
v  -0.1914 0.1139 -0.0400
v  -0.2366 0.2530 0.0400
v  -0.2250 0.1799 -0.0400
v  -0.2250 0.3261 0.0400
v  -0.2366 0.2530 -0.0400
v  -0.1914 0.3921 0.0400
v  -0.2250 0.3261 -0.0400
v  -0.1391 0.4444 0.0400
v  -0.1914 0.3921 -0.0400
v  -0.0731 0.4780 0.0400
v  -0.1391 0.4444 -0.0400
v  -0.0731 0.4780 -0.0400
# 82 vertices

vn 0.4144 -0.0000 0.9101
vn 0.0000 0.0000 1.0000
vn 0.3941 -0.1281 0.9101
vn 0.3941 0.1281 0.9101
vn 0.3352 -0.2436 0.9101
vn 0.3352 0.2436 0.9101
vn 0.2436 -0.3353 0.9101
vn 0.2436 0.3352 0.9101
vn 0.1281 -0.3941 0.9101
vn 0.1281 0.3941 0.9101
vn -0.0000 -0.4144 0.9101
vn 0.0000 0.4144 0.9101
vn -0.1281 -0.3941 0.9101
vn -0.1281 0.3941 0.9101
vn -0.2436 -0.3352 0.9101
vn -0.2436 0.3352 0.9101
vn -0.3352 -0.2436 0.9101
vn -0.3352 0.2436 0.9101
vn -0.3941 0.1281 0.9101
vn -0.4144 0.0000 0.9101
vn -0.3941 -0.1281 0.9101
vn 0.4144 0.0000 -0.9101
vn 0.3941 -0.1281 -0.9101
vn 0.0000 0.0000 -1.0000
vn 0.3941 0.1281 -0.9101
vn 0.3352 -0.2435 -0.9101
vn 0.3352 0.2436 -0.9101
vn 0.2436 -0.3353 -0.9101
vn 0.2436 0.3352 -0.9101
vn 0.1281 -0.3941 -0.9101
vn 0.1281 0.3941 -0.9101
vn 0.0000 -0.4144 -0.9101
vn -0.0000 0.4144 -0.9101
vn -0.1281 -0.3941 -0.9101
vn -0.1281 0.3941 -0.9101
vn -0.2436 -0.3352 -0.9101
vn -0.2436 0.3352 -0.9101
vn -0.3352 -0.2436 -0.9101
vn -0.3352 0.2436 -0.9101
vn -0.3941 -0.1281 -0.9101
vn -0.3941 0.1281 -0.9101
vn -0.4144 -0.0000 -0.9101
vn 0.7516 -0.5461 0.3699
vn 0.8836 -0.2871 0.3698
vn 0.5461 -0.7517 0.3698
vn 0.7516 -0.5461 -0.3699
vn 0.8836 -0.2871 -0.3698
vn 0.9291 0.0000 -0.3698
vn 0.9291 -0.0000 0.3698
vn 0.2871 -0.8836 0.3698
vn 0.5461 -0.7517 -0.3698
vn 0.8836 0.2871 -0.3698
vn 0.8836 0.2871 0.3698
vn -0.0000 -0.9291 0.3698
vn 0.2871 -0.8836 -0.3698
vn 0.7517 0.5461 -0.3698
vn 0.7517 0.5461 0.3698
vn 0.0000 -0.9291 -0.3698
vn 0.5461 0.7517 -0.3698
vn 0.5461 0.7517 0.3698
vn 0.2871 0.8836 -0.3698
vn 0.2871 0.8836 0.3698
vn -0.0000 0.9291 -0.3698
vn 0.0000 0.9291 0.3698
vn -0.2871 -0.8836 0.3698
vn -0.5461 -0.7517 0.3698
vn -0.2871 -0.8836 -0.3698
vn -0.7517 -0.5461 0.3698
vn -0.5461 -0.7517 -0.3698
vn -0.8836 -0.2871 0.3698
vn -0.7517 -0.5461 -0.3698
vn -0.9291 0.0000 0.3698
vn -0.8836 -0.2871 -0.3698
vn -0.8836 0.2871 0.3698
vn -0.9291 -0.0000 -0.3698
vn -0.7517 0.5461 0.3698
vn -0.8836 0.2871 -0.3698
vn -0.5461 0.7517 0.3698
vn -0.7517 0.5461 -0.3698
vn -0.2871 0.8836 0.3698
vn -0.5461 0.7517 -0.3698
vn -0.2871 0.8836 -0.3698
# 82 vertex normals

vt 0.8030 0.5755 0.0000
vt 0.6058 0.5755 0.0000
vt 0.7933 0.4520 0.0000
vt 0.7933 0.6991 0.0000
vt 0.7653 0.3405 0.0000
vt 0.7653 0.8105 0.0000
vt 0.7217 0.2521 0.0000
vt 0.7217 0.8990 0.0000
vt 0.6667 0.1953 0.0000
vt 0.6667 0.9558 0.0000
vt 0.6058 0.1757 0.0000
vt 0.6058 0.9754 0.0000
vt 0.5448 0.1953 0.0000
vt 0.5448 0.9558 0.0000
vt 0.4898 0.2521 0.0000
vt 0.4898 0.8990 0.0000
vt 0.4462 0.3405 0.0000
vt 0.4462 0.8105 0.0000
vt 0.4182 0.6991 0.0000
vt 0.4085 0.5755 0.0000
vt 0.4182 0.4520 0.0000
vt 0.0057 0.5755 0.0000
vt 0.0154 0.4520 0.0000
vt 0.2029 0.5755 0.0000
vt 0.0154 0.6991 0.0000
vt 0.0434 0.3405 0.0000
vt 0.0434 0.8105 0.0000
vt 0.0870 0.2521 0.0000
vt 0.0870 0.8990 0.0000
vt 0.1420 0.1953 0.0000
vt 0.1420 0.9558 0.0000
vt 0.2029 0.1757 0.0000
vt 0.2029 0.9754 0.0000
vt 0.2639 0.1953 0.0000
vt 0.2639 0.9558 0.0000
vt 0.3189 0.2521 0.0000
vt 0.3189 0.8990 0.0000
vt 0.3625 0.3405 0.0000
vt 0.3625 0.8105 0.0000
vt 0.3905 0.4520 0.0000
vt 0.3905 0.6991 0.0000
vt 0.4001 0.5755 0.0000
vt 0.8952 0.5984 0.0000
vt 0.8952 0.6944 0.0000
vt 0.8880 0.6944 0.0000
vt 0.8880 0.5984 0.0000
vt 0.8952 0.5025 0.0000
vt 0.8952 0.7904 0.0000
vt 0.8880 0.7904 0.0000
vt 0.8294 0.6944 0.0000
vt 0.8294 0.5984 0.0000
vt 0.8294 0.5025 0.0000
vt 0.8880 0.5025 0.0000
vt 0.8952 0.4065 0.0000
vt 0.8952 0.8867 0.0000
vt 0.8880 0.8867 0.0000
vt 0.8294 0.7904 0.0000
vt 0.8220 0.7904 0.0000
vt 0.8220 0.6944 0.0000
vt 0.8220 0.5984 0.0000
vt 0.8294 0.4065 0.0000
vt 0.8220 0.5025 0.0000
vt 0.8880 0.4065 0.0000
vt 0.8952 0.3106 0.0000
vt 0.8952 0.9861 0.0000
vt 0.8880 0.9861 0.0000
vt 0.8294 0.8867 0.0000
vt 0.8220 0.8867 0.0000
vt 0.8294 0.3106 0.0000
vt 0.8220 0.4065 0.0000
vt 0.8880 0.3106 0.0000
vt 0.8952 0.2147 0.0000
vt 0.8294 0.9861 0.0000
vt 0.8220 0.9861 0.0000
vt 0.8294 0.2147 0.0000
vt 0.8220 0.3106 0.0000
vt 0.8880 0.2147 0.0000
vt 0.8952 0.1188 0.0000
vt 0.8294 0.1188 0.0000
vt 0.8220 0.2147 0.0000
vt 0.8880 0.1188 0.0000
vt 0.8952 0.0229 0.0000
vt 0.8294 0.0229 0.0000
vt 0.8220 0.1188 0.0000
vt 0.8880 0.0229 0.0000
vt 0.8220 0.0229 0.0000
vt 0.9893 0.0229 0.0000
vt 0.9893 0.1227 0.0000
vt 0.9821 0.1227 0.0000
vt 0.9821 0.0229 0.0000
vt 0.9893 0.2195 0.0000
vt 0.9821 0.2195 0.0000
vt 0.9235 0.1227 0.0000
vt 0.9235 0.0229 0.0000
vt 0.9893 0.3155 0.0000
vt 0.9821 0.3155 0.0000
vt 0.9235 0.2195 0.0000
vt 0.9161 0.2195 0.0000
vt 0.9161 0.1227 0.0000
vt 0.9161 0.0229 0.0000
vt 0.9893 0.4113 0.0000
vt 0.9821 0.4113 0.0000
vt 0.9235 0.3155 0.0000
vt 0.9161 0.3155 0.0000
vt 0.9893 0.5071 0.0000
vt 0.9821 0.5071 0.0000
vt 0.9235 0.4113 0.0000
vt 0.9161 0.4113 0.0000
vt 0.9893 0.6029 0.0000
vt 0.9821 0.6029 0.0000
vt 0.9235 0.5071 0.0000
vt 0.9161 0.5071 0.0000
vt 0.9893 0.6988 0.0000
vt 0.9821 0.6988 0.0000
vt 0.9235 0.6029 0.0000
vt 0.9161 0.6029 0.0000
vt 0.9893 0.7946 0.0000
vt 0.9821 0.7946 0.0000
vt 0.9235 0.6988 0.0000
vt 0.9161 0.6988 0.0000
vt 0.9893 0.8905 0.0000
vt 0.9821 0.8905 0.0000
vt 0.9235 0.7946 0.0000
vt 0.9161 0.7946 0.0000
vt 0.9893 0.9863 0.0000
vt 0.9821 0.9863 0.0000
vt 0.9235 0.8905 0.0000
vt 0.9161 0.8905 0.0000
vt 0.9235 0.9863 0.0000
vt 0.9161 0.9863 0.0000
# 130 texture coords

g default
usemtl wire_088088225_001
s 1
f 1/1/1 2/2/2 3/3/3 
f 1/1/1 4/4/4 2/2/2 
f 3/3/3 2/2/2 5/5/5 
f 4/4/4 6/6/6 2/2/2 
f 5/5/5 2/2/2 7/7/7 
f 6/6/6 8/8/8 2/2/2 
f 7/7/7 2/2/2 9/9/9 
f 8/8/8 10/10/10 2/2/2 
f 9/9/9 2/2/2 11/11/11 
f 10/10/10 12/12/12 2/2/2 
f 11/11/11 2/2/2 13/13/13 
f 12/12/12 14/14/14 2/2/2 
f 13/13/13 2/2/2 15/15/15 
f 14/14/14 16/16/16 2/2/2 
f 15/15/15 2/2/2 17/17/17 
f 16/16/16 18/18/18 2/2/2 
f 2/2/2 18/18/18 19/19/19 
f 2/2/2 19/19/19 20/20/20 
f 2/2/2 20/20/20 21/21/21 
f 2/2/2 21/21/21 17/17/17 
f 22/22/22 23/23/23 24/24/24 
f 22/22/22 24/24/24 25/25/25 
f 23/23/23 26/26/26 24/24/24 
f 25/25/25 24/24/24 27/27/27 
f 26/26/26 28/28/28 24/24/24 
f 27/27/27 24/24/24 29/29/29 
f 28/28/28 30/30/30 24/24/24 
f 29/29/29 24/24/24 31/31/31 
f 30/30/30 32/32/32 24/24/24 
f 31/31/31 24/24/24 33/33/33 
f 32/32/32 34/34/34 24/24/24 
f 33/33/33 24/24/24 35/35/35 
f 34/34/34 36/36/36 24/24/24 
f 35/35/35 24/24/24 37/37/37 
f 36/36/36 38/38/38 24/24/24 
f 37/37/37 24/24/24 39/39/39 
f 38/38/38 40/40/40 24/24/24 
f 24/24/24 41/41/41 39/39/39 
f 24/24/24 42/42/42 41/41/41 
f 24/24/24 40/40/40 42/42/42 
f 3/43/3 5/44/5 43/45/43 
f 3/43/3 43/45/43 44/46/44 
f 44/46/44 1/47/1 3/43/3 
f 5/44/5 7/48/7 45/49/45 
f 5/44/5 45/49/45 43/45/43 
f 43/45/43 45/49/45 46/50/46 
f 43/45/43 46/50/46 47/51/47 
f 43/45/43 47/51/47 44/46/44 
f 44/46/44 47/51/47 48/52/48 
f 44/46/44 48/52/48 49/53/49 
f 49/53/49 1/47/1 44/46/44 
f 1/47/1 49/53/49 4/54/4 
f 7/48/7 9/55/9 50/56/50 
f 7/48/7 50/56/50 45/49/45 
f 45/49/45 50/56/50 51/57/51 
f 45/49/45 51/57/51 46/50/46 
f 46/50/46 51/57/51 28/58/28 
f 46/50/46 28/58/28 26/59/26 
f 46/50/46 26/59/26 47/51/47 
f 47/51/47 26/59/26 23/60/23 
f 47/51/47 23/60/23 48/52/48 
f 48/52/48 52/61/52 49/53/49 
f 48/52/48 22/62/22 52/61/52 
f 48/52/48 23/60/23 22/62/22 
f 49/53/49 52/61/52 53/63/53 
f 49/53/49 53/63/53 4/54/4 
f 4/54/4 53/63/53 6/64/6 
f 9/55/9 11/65/11 54/66/54 
f 9/55/9 54/66/54 50/56/50 
f 50/56/50 54/66/54 55/67/55 
f 50/56/50 55/67/55 51/57/51 
f 51/57/51 55/67/55 30/68/30 
f 51/57/51 30/68/30 28/58/28 
f 52/61/52 56/69/56 53/63/53 
f 52/61/52 25/70/25 56/69/56 
f 52/61/52 22/62/22 25/70/25 
f 53/63/53 56/69/56 57/71/57 
f 53/63/53 57/71/57 6/64/6 
f 6/64/6 57/71/57 8/72/8 
f 54/66/54 58/73/58 55/67/55 
f 55/67/55 58/73/58 32/74/32 
f 55/67/55 32/74/32 30/68/30 
f 56/69/56 59/75/59 57/71/57 
f 56/69/56 25/70/25 27/76/27 
f 56/69/56 27/76/27 59/75/59 
f 57/71/57 59/75/59 60/77/60 
f 57/71/57 60/77/60 8/72/8 
f 8/72/8 60/77/60 10/78/10 
f 59/75/59 61/79/61 60/77/60 
f 59/75/59 27/76/27 29/80/29 
f 59/75/59 29/80/29 61/79/61 
f 60/77/60 61/79/61 62/81/62 
f 60/77/60 62/81/62 10/78/10 
f 10/78/10 62/81/62 12/82/12 
f 61/79/61 63/83/63 62/81/62 
f 61/79/61 29/80/29 31/84/31 
f 61/79/61 31/84/31 63/83/63 
f 62/81/62 63/83/63 64/85/64 
f 62/81/62 64/85/64 12/82/12 
f 63/83/63 31/84/31 33/86/33 
f 11/87/11 13/88/13 65/89/65 
f 11/87/11 65/89/65 54/90/54 
f 13/88/13 15/91/15 66/92/66 
f 13/88/13 66/92/66 65/89/65 
f 65/89/65 66/92/66 67/93/67 
f 65/89/65 67/93/67 58/94/58 
f 65/89/65 58/94/58 54/90/54 
f 15/91/15 17/95/17 68/96/68 
f 15/91/15 68/96/68 66/92/66 
f 66/92/66 68/96/68 69/97/69 
f 66/92/66 69/97/69 67/93/67 
f 67/93/67 69/97/69 36/98/36 
f 67/93/67 36/98/36 34/99/34 
f 67/93/67 34/99/34 58/94/58 
f 58/94/58 34/99/34 32/100/32 
f 17/95/17 21/101/21 70/102/70 
f 17/95/17 70/102/70 68/96/68 
f 68/96/68 70/102/70 71/103/71 
f 68/96/68 71/103/71 69/97/69 
f 69/97/69 71/103/71 38/104/38 
f 69/97/69 38/104/38 36/98/36 
f 21/101/21 20/105/20 72/106/72 
f 21/101/21 72/106/72 70/102/70 
f 70/102/70 72/106/72 73/107/73 
f 70/102/70 73/107/73 71/103/71 
f 71/103/71 73/107/73 40/108/40 
f 71/103/71 40/108/40 38/104/38 
f 20/105/20 19/109/19 74/110/74 
f 20/105/20 74/110/74 72/106/72 
f 72/106/72 74/110/74 75/111/75 
f 72/106/72 75/111/75 73/107/73 
f 73/107/73 75/111/75 42/112/42 
f 73/107/73 42/112/42 40/108/40 
f 19/109/19 18/113/18 76/114/76 
f 19/109/19 76/114/76 74/110/74 
f 74/110/74 76/114/76 77/115/77 
f 74/110/74 77/115/77 75/111/75 
f 75/111/75 77/115/77 41/116/41 
f 75/111/75 41/116/41 42/112/42 
f 18/113/18 16/117/16 78/118/78 
f 18/113/18 78/118/78 76/114/76 
f 76/114/76 78/118/78 79/119/79 
f 76/114/76 79/119/79 77/115/77 
f 77/115/77 79/119/79 39/120/39 
f 77/115/77 39/120/39 41/116/41 
f 16/117/16 14/121/14 80/122/80 
f 16/117/16 80/122/80 78/118/78 
f 78/118/78 80/122/80 81/123/81 
f 78/118/78 81/123/81 79/119/79 
f 79/119/79 81/123/81 37/124/37 
f 79/119/79 37/124/37 39/120/39 
f 14/121/14 12/125/12 64/126/64 
f 14/121/14 64/126/64 80/122/80 
f 80/122/80 64/126/64 82/127/82 
f 80/122/80 82/127/82 81/123/81 
f 81/123/81 82/127/82 35/128/35 
f 81/123/81 35/128/35 37/124/37 
f 64/126/64 63/129/63 82/127/82 
f 82/127/82 63/129/63 33/130/33 
f 82/127/82 33/130/33 35/128/35 
# 0 polygons - 160 triangles

